<svg width="116" height="38" viewBox="0 0 116 38" fill="none" xmlns="http://www.w3.org/2000/svg">
<path fill-rule="evenodd" clip-rule="evenodd" d="M100.398 9.09766H92.1798C91.8102 9.09766 91.441 9.37985 91.441 9.85029V16.529C91.441 18.9752 91.441 24.1767 91.441 24.1767L83.1304 9.75634C82.9456 9.37985 82.4835 9.09766 82.0224 9.09766H73.7111C73.3419 9.09766 72.9723 9.3802 72.9723 9.85029V36.9452C72.9723 37.3213 73.4338 37.6944 73.8033 37.6944H82.022C82.3913 37.6944 82.7609 37.4118 82.7609 36.9417V23.1336L91.0714 37.036C91.3474 37.4371 91.718 37.6944 92.1798 37.6944H100.398C100.767 37.6944 101.137 37.4122 101.137 36.9421V9.85029C101.137 9.4738 100.86 9.09766 100.398 9.09766Z" fill="#D6EDEC"/>
<mask id="mask0" mask-type="alpha" maskUnits="userSpaceOnUse" x="105" y="9" width="11" height="29">
<path fill-rule="evenodd" clip-rule="evenodd" d="M105.291 9.32031H115.152V37.6913H105.291V9.32031Z" fill="white"/>
</mask>
<g mask="url(#mask0)">
<path fill-rule="evenodd" clip-rule="evenodd" d="M110.23 10.6616C108.808 10.6495 107.118 10.3191 105.291 9.32031V36.9437C105.291 37.3175 105.56 37.6913 106.008 37.6913H107.396H114.435C114.482 37.6913 114.529 37.6862 114.575 37.6769C114.614 37.6693 114.651 37.6572 114.687 37.6438C114.691 37.6421 114.696 37.6407 114.701 37.639C114.739 37.6238 114.775 37.6049 114.809 37.5838C114.814 37.5804 114.819 37.5773 114.825 37.5739C114.852 37.5556 114.878 37.5353 114.902 37.5132C114.917 37.5005 114.93 37.4881 114.944 37.4743C114.957 37.4602 114.969 37.4457 114.981 37.4309C115.002 37.4054 115.022 37.3788 115.039 37.3503C115.043 37.3444 115.046 37.3385 115.049 37.333C115.069 37.2979 115.087 37.261 115.102 37.221C115.104 37.2162 115.105 37.2111 115.107 37.2059C115.119 37.1687 115.131 37.1304 115.138 37.0894C115.147 37.0415 115.152 36.9926 115.152 36.9437V10.019V9.32031C113.332 10.3153 111.649 10.6471 110.23 10.6616Z" fill="#D6EDEC"/>
</g>
<path fill-rule="evenodd" clip-rule="evenodd" d="M115.219 5.06538C115.219 2.02657 113.192 0 110.098 0C107.004 0 104.977 1.91375 104.977 5.06538C104.977 8.69839 115.061 8.72227 115.219 5.06538Z" fill="#D6EDEC"/>
<path fill-rule="evenodd" clip-rule="evenodd" d="M55.0493 28.9518C52.1707 28.9518 49.8371 26.4648 49.8371 23.3967C49.8371 20.3289 52.1707 17.8419 55.0493 17.8419C57.9279 17.8419 60.2615 20.3289 60.2615 23.3967C60.2615 26.4648 57.9279 28.9518 55.0493 28.9518ZM55.0493 9.09766C46.5649 9.09766 39.6868 15.4994 39.6868 23.396C39.6868 31.293 46.5649 37.6944 55.0493 37.6944C63.5338 37.6944 70.4119 31.293 70.4119 23.396C70.4119 15.4994 63.5338 9.09766 55.0493 9.09766Z" fill="#D6EDEC"/>
<mask id="mask1" mask-type="alpha" maskUnits="userSpaceOnUse" x="0" y="9" width="39" height="29">
<path fill-rule="evenodd" clip-rule="evenodd" d="M0 9.26758H38.0717V37.6958H0V9.26758Z" fill="white"/>
</mask>
<g mask="url(#mask1)">
<path fill-rule="evenodd" clip-rule="evenodd" d="M33.5639 10.0135C33.4725 9.64209 33.1058 9.27033 32.6473 9.27033H23.7587C23.3009 9.27033 22.9342 9.64209 22.8428 10.0135C22.8428 10.0135 20.019 21.1772 19.2346 24.0397C19.1197 24.4573 19.0477 24.7005 19.0358 24.7005C18.9443 24.7005 15.2291 10.0107 15.2291 10.0107C15.1377 9.63934 14.771 9.26758 14.3128 9.26758H5.42427C4.96611 9.26758 4.59938 9.63934 4.50761 10.0107L0.0174629 36.9499C-0.0743046 37.3213 0.200998 37.6927 0.658816 37.6927H8.99811C9.45626 37.6927 9.82265 37.3213 9.82265 36.9499L11.155 22.5819L15.5041 36.9499C15.6873 37.3216 16.054 37.693 16.5122 37.693H17.9359V37.6958H21.5597C22.0175 37.6958 22.3843 37.3244 22.5678 36.9526L26.9166 22.5843L28.2489 36.9526C28.2489 37.324 28.6153 37.6955 29.0738 37.6955H37.4127C37.8709 37.6955 38.1459 37.324 38.0541 36.9526L33.5639 10.0135Z" fill="#D6EDEC"/>
</g>
</svg>
